<svg version="1.1" xmlns="http://www.w3.org/2000/svg" xmlns:xlink="http://www.w3.org/1999/xlink" width="233.239990234375" height="56.84000015258789"><defs></defs><g transform="translate(-124.2979736328125,22.889999389648438)"><rect fill="rgb(255,255,255)" stroke="none" x="0" y="0" width="233.239990234375" height="56.84000015258789" fill-opacity="0" transform="translate(124.2979736328125,-22.889999389648438)"></rect><g transform="translate(117.12797546386719,29) rotate(0,0,0) translate(-117.12797546386719,-29) matrix(1,0,0,1,117.12797546386719,29)"><path fill="rgb(255,255,255)" fill-opacity="1" d="M13.02-10.56Q11.15-10.56 9.16-13.25Q7.17-15.94 7.17-17.96Q7.17-19.97 11.32-25.49Q15.46-31.00 21.00-36.66Q26.55-42.32 32.74-46.66Q38.92-51.00 42.51-51.00L42.51-51.00Q44.64-51.00 45.03-47.86L45.03-47.86L45.03-47.75Q45.03-46.01 41.56-41.08Q38.08-36.16 36.12-33.92L36.12-33.92Q35.62-33.24 35.62-33.05Q35.62-32.85 35.87-32.85Q36.12-32.85 37.08-33.13L37.08-33.13Q41.22-34.48 46.99-37.67Q52.76-40.86 56.31-43.21Q59.87-45.56 60.34-45.96Q60.82-46.35 60.82-46.49Q60.82-46.63 60.62-46.63Q60.43-46.63 57.77-45.40Q55.11-44.16 54.55-44.16Q53.99-44.16 52.95-44.75Q51.92-45.34 51.92-46.24L51.92-46.24Q51.92-47.75 57.38-49.82Q62.84-51.89 64.63-51.89L64.63-51.89Q68.60-51.89 68.60-49.88L68.60-49.88Q68.60-47.41 64.40-43.97Q60.20-40.52 54.49-37.56L54.49-37.56Q44.08-32.12 40.21-30.56L40.21-30.56Q39.82-30.33 39.82-30.00L39.82-30.00Q47.60-12.24 47.60-9.72L47.60-9.72Q47.60-8.16 46.12-7.26Q44.64-6.36 41.89-6.36Q39.15-6.36 36.68-8.10Q34.22-9.84 32.85-12.30Q31.48-14.76 30.55-17.23Q29.63-19.69 29.04-21.43Q28.45-23.16 28.14-23.16Q27.84-23.16 27.50-22.86Q27.16-22.55 25.79-21.12Q24.42-19.69 22.77-18.04Q21.12-16.39 19.21-14.65L19.21-14.65Q14.90-10.56 13.02-10.56ZM61.44-31.62L61.44-31.62Q61.83-31.62 62.16-31.26Q62.50-30.89 62.50-30.42Q62.50-29.94 61.94-29.21L61.94-29.21Q59.76-26.52 59.06-25.82Q58.36-25.12 58.36-24.90Q58.36-24.68 58.72-24.68Q59.08-24.68 61.72-25.66Q64.35-26.64 65.19-26.64Q66.03-26.64 66.92-25.94Q67.82-25.24 67.82-24.14Q67.82-23.05 64.40-19.16Q60.99-15.27 60.99-14.09L60.99-14.09Q60.99-13.87 61.16-13.87L61.16-13.87Q61.44-13.87 62.16-14.23Q62.89-14.60 63.06-14.60L63.06-14.60Q63.68-14.60 63.68-14.15L63.68-14.15Q63.68-12.41 60.93-10.68Q58.19-8.94 56.31-8.94Q54.44-8.94 53.26-9.98Q52.08-11.01 52.08-12.75Q52.08-14.48 53.79-16.64Q55.50-18.80 57.32-19.69Q59.14-20.59 59.14-21.15L59.14-21.15Q59.14-21.32 59.08-21.37L59.08-21.37Q56.62-20.36 55.05-20.36L55.05-20.36Q51.97-20.36 51.97-22.16L51.97-22.16Q51.97-24.23 55.56-27.59Q59.14-30.95 61.44-31.62ZM65.97-15.83L65.97-15.83Q65.97-18.18 68.91-21.32Q71.85-24.45 74.90-26.50Q77.96-28.54 78.74-28.54Q79.52-28.54 79.94-27.42Q80.36-26.30 80.36-25.49Q80.36-24.68 80.28-24.40Q80.20-24.12 80.11-24.00Q80.03-23.89 79.83-23.72Q79.64-23.56 79.44-23.36Q79.24-23.16 77.56-21.23Q75.88-19.30 75.69-18.99Q75.49-18.68 75.49-18.21Q75.49-17.73 75.88-17.73Q76.28-17.73 76.56-17.96L76.56-17.96Q78.63-19.24 86.02-25.29L86.02-25.29Q87.53-26.36 88.04-26.36Q88.54-26.36 89.07-25.88Q89.60-25.40 89.60-25.12L89.60-25.12Q89.60-23.50 86.10-18.49Q82.60-13.48 77.45-6.78Q72.30-0.09 70.62 2.43Q68.94 4.95 67.37 4.95L67.37 4.95Q66.59 4.95 65.80 4.14Q65.02 3.32 65.02 2.18Q65.02 1.03 65.19 0.05Q65.36-0.93 66.25-2.50Q67.15-4.07 68.60-5.89Q70.06-7.71 71.21-9.08Q72.36-10.45 73.84-12.08Q75.32-13.70 75.52-13.95Q75.72-14.20 75.72-14.37Q75.72-14.54 75.58-14.54Q75.44-14.54 73.00-13.20Q70.56-11.85 69.02-11.85Q67.48-11.85 66.73-13.36Q65.97-14.88 65.97-15.83ZM96.44-18.96L96.44-18.96Q94.08-18.96 92.15-20.03Q90.22-21.09 90.22-23.28L90.22-23.28Q90.22-26.13 94.25-28.20Q98.28-30.28 102.60-30.28L102.60-30.28Q105.28-30.28 106.96-29.30Q108.64-28.32 108.62-26.38Q108.59-24.45 105.70-22.91Q102.82-21.37 101.87-21.37Q100.92-21.37 100.92-21.76Q100.92-22.16 101.28-22.35Q101.64-22.55 102.88-23.11Q104.11-23.67 104.67-24.03Q105.23-24.40 105.23-24.62Q105.23-24.84 104.72-24.84L104.72-24.84Q102.88-24.84 98.93-23.53Q94.98-22.21 94.98-21.37L94.98-21.37Q94.98-20.87 97.22-20.87L97.22-20.87Q102.76-20.87 102.76-16.44L102.76-16.44Q102.76-14.48 100.41-12.89Q98.06-11.29 95.60-10.62Q93.13-9.95 91.65-9.95Q90.16-9.95 88.37-11.29Q86.58-12.64 86.58-13.98Q86.58-15.32 90.11-15.94L90.11-15.94Q91.68-16.16 94.25-16.98Q96.83-17.79 96.83-18.52L96.83-18.52Q96.83-18.96 96.44-18.96ZM107.75-33.30L107.75-33.30Q107.75-34.20 112.56-34.92Q117.38-35.65 122.87-35.93L122.87-35.93Q127.46-40.08 131.16-42.99L131.16-42.99L132.39-44.00Q133.23-44.00 133.23-42.76L133.23-42.76L133.34-40.02Q133.17-39.40 130.99-36.16L130.99-36.16L133.73-36.16Q139.95-36.16 140.93-34.95Q141.91-33.75 141.91-33.02L141.91-33.02Q141.91-32.07 140.00-32.01Q138.10-31.96 128.08-31.96L128.08-31.96Q120.07-23.72 115.53-17.34L115.53-17.34Q113.80-14.99 112.51-13.14Q111.22-11.29 110.52-10.54Q109.82-9.78 109.20-9.78L109.20-9.78Q107.36-9.78 106.07-11.01Q104.78-12.24 104.78-14.04L104.78-14.04Q104.78-18.96 118.50-31.90L118.50-31.90L109.88-31.90Q107.75-31.90 107.75-33.30ZM118.39-12.13Q118.39-10.90 119.23-10.09Q120.07-9.28 121.41-9.28Q122.76-9.28 126.00-12.52Q129.25-15.77 131.77-19.30Q134.29-22.83 134.29-23.78L134.29-23.78Q134.29-26.75 131.77-26.75L131.77-26.75Q127.74-26.02 123.06-21.04Q118.39-16.05 118.39-12.13L118.39-12.13ZM135.30-28.54L135.30-28.54Q134.35-28.54 133.79-29.21Q133.23-29.88 133.12-30.56L133.12-30.56L133.06-31.17Q133.34-33.86 135.47-35.26Q137.60-36.66 139.16-36.66L139.16-36.66Q141.46-36.66 141.46-34.36L141.46-34.36Q141.46-32.91 139.72-30.86Q137.99-28.82 135.30-28.54ZM147.84-12.97L147.84-12.97Q147.84-12.69 148.24-12.58L148.24-12.58Q148.63-12.58 150.95-14.18Q153.28-15.77 153.58-15.94Q153.89-16.11 154.17-16.11L154.17-16.11Q154.96-16.11 154.96-15.35Q154.96-14.60 151.01-12.02Q147.06-9.44 145.44-9.44L145.44-9.44Q144.76-9.44 144.01-10.00Q143.25-10.56 143.25-11.32Q143.25-12.08 143.64-12.97Q144.04-13.87 144.04-14.18Q144.04-14.48 143.87-14.48Q143.70-14.48 143.53-14.37L143.53-14.37Q138.10-10.28 135.52-10.28L135.52-10.28Q134.07-10.28 133.23-11.35Q132.39-12.41 132.22-13.48L132.22-13.48L132.11-14.54Q132.11-16.39 133.54-18.82Q134.96-21.26 137.29-23.47Q139.61-25.68 143.00-27.20Q146.39-28.71 149.92-28.71L149.92-28.71Q151.82-28.71 153.47-27.70Q155.12-26.69 155.12-25.35Q155.12-24.00 152.49-23.72L152.49-23.72Q150.53-23.28 146.02-20.50Q141.52-17.73 141.52-16.28L141.52-16.28Q141.52-15.66 142.13-15.66L142.13-15.66Q143.25-15.66 147.42-18.85Q151.60-22.04 152.44-22.04Q153.28-22.04 153.28-21.04L153.28-21.04Q153.28-20.31 152.74-19.66Q152.21-19.02 151.99-18.74L151.99-18.74Q151.54-18.18 149.69-16.25Q147.84-14.32 147.84-12.97ZM175.40-13.25L175.40-13.25L177.13-13.92Q177.92-13.92 177.92-13.31L177.92-13.31Q177.92-11.85 175.54-10.54Q173.16-9.22 171.00-9.22Q168.84-9.22 167.67-10.14Q166.49-11.07 166.49-12.97Q166.49-14.88 168.68-17.68L168.68-17.68Q168.96-17.96 168.96-18.15Q168.96-18.35 168.73-18.35Q168.51-18.35 168.34-18.24Q168.17-18.12 165.93-16.72L165.93-16.72Q160.56-13.31 158.26-11.96L158.26-11.96Q157.31-11.46 156.47-11.46Q155.63-11.46 154.62-12.52Q153.61-13.59 153.61-14.65L153.61-14.65Q153.61-16.89 159.94-22.86Q166.27-28.82 168.51-28.82L168.51-28.82Q169.35-28.71 169.96-27.87Q170.58-27.03 170.58-25.88Q170.58-24.73 169.74-23.39L169.74-23.39Q168.51-21.43 167.75-20.67Q167.00-19.92 167.00-19.72Q167.00-19.52 167.16-19.52Q167.33-19.52 167.64-19.72Q167.95-19.92 172.96-23.19Q177.97-26.47 178.59-26.83Q179.20-27.20 179.93-27.20Q180.66-27.20 181.84-26.50Q183.01-25.80 183.01-24.62Q183.01-23.44 180.97-21.15Q178.92-18.85 176.85-16.72Q174.78-14.60 174.78-13.70L174.78-13.70Q174.78-13.25 175.40-13.25ZM217.56-28.93L217.56-28.93L205.75-29.16Q202.33-29.21 200.09-31.00Q197.85-32.80 197.85-35.54L197.85-35.54Q197.85-39.29 203.37-43.02Q208.88-46.74 216.47-48.90Q224.06-51.05 229.55-51.05L229.55-51.05Q240.41-51.05 240.41-45.51L240.41-45.51Q240.41-43.72 236.58-38.84Q232.74-33.97 230.84-33.97L230.84-33.97Q230.44-33.97 230.08-34.34Q229.72-34.70 229.72-35.26Q229.72-35.82 231.09-37.30Q232.46-38.79 232.46-39.46L232.46-39.46Q232.46-39.96 231.17-39.96L231.17-39.96Q227.70-39.96 220.20-37.36Q212.69-34.76 212.69-33.24L212.69-33.24Q212.69-32.63 213.92-32.49Q215.16-32.35 218.29-32.26Q221.43-32.18 223.78-31.84Q226.13-31.51 227.62-30.86Q229.10-30.22 229.91-29.49Q230.72-28.76 231.23-27.81L231.23-27.81Q231.96-26.30 231.96-24.79L231.96-24.79Q231.96-20.76 226.44-16.67Q220.92-12.58 213.17-10.12Q205.41-7.65 199.36-7.65L199.36-7.65Q186.82-7.65 186.82-15.55L186.82-15.55Q186.82-19.19 192.59-21.54L192.59-21.54Q194.44-19.92 200.71-19.92L200.71-19.92Q205.30-20.20 209.16-21.23Q213.03-22.27 215.21-23.53Q217.40-24.79 218.63-25.94Q219.86-27.08 220.03-27.87L220.03-27.87Q219.92-28.93 217.56-28.93Z"></path></g></g></svg>